<?xml version="1.0" encoding="UTF-8" standalone="no"?>
<svg
   xmlns:dc="http://purl.org/dc/elements/1.1/"
   xmlns:cc="http://creativecommons.org/ns#"
   xmlns:rdf="http://www.w3.org/1999/02/22-rdf-syntax-ns#"
   xmlns:svg="http://www.w3.org/2000/svg"
   xmlns="http://www.w3.org/2000/svg"
   xmlns:sodipodi="http://sodipodi.sourceforge.net/DTD/sodipodi-0.dtd"
   xmlns:inkscape="http://www.inkscape.org/namespaces/inkscape"
   version="1.1"
   id="Layer_1"
   x="0px"
   y="0px"
   viewBox="0 0 29 29"
   xml:space="preserve"
   sodipodi:docname="delete.svg"
   inkscape:version="1.0.1 (3bc2e813f5, 2020-09-07)"><defs
     id="defs881" /><sodipodi:namedview
     pagecolor="#ffffff"
     bordercolor="#666666"
     borderopacity="1"
     objecttolerance="10"
     gridtolerance="10"
     guidetolerance="10"
     inkscape:pageopacity="0"
     inkscape:pageshadow="2"
     inkscape:window-width="1280"
     inkscape:window-height="961"
     id="namedview879"
     showgrid="false"
     inkscape:zoom="17.921499"
     inkscape:cx="11.847184"
     inkscape:cy="15.902965"
     inkscape:window-x="-8"
     inkscape:window-y="-8"
     inkscape:window-maximized="1"
     inkscape:current-layer="Layer_1" /><style
     type="text/css"
     id="style862">.st0{fill:none;stroke:#000000;stroke-width:2;stroke-miterlimit:10;} .st1{fill:none;stroke:#000000;stroke-width:2;stroke-linecap:round;stroke-linejoin:round;stroke-miterlimit:10;} .st2{fill:none;stroke:#000000;stroke-miterlimit:10;} .st3{fill:none;stroke:#000000;stroke-width:2;stroke-miterlimit:10;stroke-dasharray:1.7411,1.7411;} .st4{fill:none;stroke:#000000;stroke-width:2;stroke-linecap:round;stroke-linejoin:round;stroke-dasharray:2.0261,4.0522;} .st5{fill:#606060;} .st6{stroke:#000000;stroke-miterlimit:10;}</style><path
     d="M19.795 27H9.205a2.99 2.99 0 0 1-2.985-2.702L4.505 7.099A.998.998 0 0 1 5.5 6h18a1 1 0 0 1 .995 1.099L22.78 24.297A2.991 2.991 0 0 1 19.795 27zM6.604 8L8.21 24.099a.998.998 0 0 0 .995.901h10.59a.998.998 0 0 0 .995-.901L22.396 8H6.604z"
     id="path864"
     style="fill:#ff0000" /><path
     d="M26 8H3a1 1 0 1 1 0-2h23a1 1 0 1 1 0 2z"
     id="path866"
     style="fill:#ff0000" /><path
     d="M14.5 23a1 1 0 0 1-1-1V11a1 1 0 1 1 2 0v11a1 1 0 0 1-1 1z"
     id="path868"
     style="fill:#d40000" /><path
     d="M10.999 23a1 1 0 0 1-.995-.91l-1-11a1 1 0 0 1 .905-1.086 1.003 1.003 0 0 1 1.087.906l1 11a1 1 0 0 1-.997 1.09z"
     id="path870"
     style="fill:#d40000" /><path
     d="M18.001 23a1 1 0 0 1-.997-1.09l1-11c.051-.55.531-.946 1.087-.906a1 1 0 0 1 .905 1.086l-1 11a1 1 0 0 1-.995.91z"
     id="path872"
     style="fill:#d40000" /><path
     d="M19 8h-9a1 1 0 0 1-1-1V3a1 1 0 0 1 1-1h9a1 1 0 0 1 1 1v4a1 1 0 0 1-1 1zm-8-2h7V4h-7v2z"
     id="path874"
     style="fill:#ff0000" /><metadata
     id="metadata876"><rdf:RDF><rdf:Description
         about="https://iconscout.com/legal#licenses"
         dc:title="delete,recycle,bin,waste,trash"
         dc:description="delete,recycle,bin,waste,trash"
         dc:publisher="Iconscout"
         dc:date="2017-10-03"
         dc:format="image/svg+xml"
         dc:language="en"><dc:creator><rdf:Bag><rdf:li>Jemis Mali</rdf:li></rdf:Bag></dc:creator></rdf:Description><cc:Work
         rdf:about=""><dc:format>image/svg+xml</dc:format><dc:type
           rdf:resource="http://purl.org/dc/dcmitype/StillImage" /></cc:Work></rdf:RDF></metadata></svg>
